<?xml version="1.0" encoding="iso-8859-1"?>
<!-- Generator: Adobe Illustrator 22.1.0, SVG Export Plug-In . SVG Version: 6.00 Build 0)  -->
<svg version="1.1" id="&#x421;&#x43B;&#x43E;&#x439;_1"
	 xmlns="http://www.w3.org/2000/svg" xmlns:xlink="http://www.w3.org/1999/xlink" x="0px" y="0px" viewBox="0 0 184.84 42.102"
	 style="enable-background:new 0 0 184.84 42.102;" xml:space="preserve">
<g>
	<path style="fill:#FF7037;" d="M9.8,0h0.704c2.797,0,5.369,1.115,7.716,3.345C20.547,1.115,23.11,0,25.907,0h0.734
		c3.618,0,6.484,1.448,8.596,4.342c0.782,1.232,1.174,2.533,1.174,3.902v32.039c-0.157,1.213-0.763,1.819-1.819,1.819h-0.088
		c-1.115,0-1.722-0.723-1.819-2.171V7.863c0-1.389-1.144-2.621-3.433-3.697c-1.056-0.371-2.024-0.557-2.905-0.557
		c-2.836,0-4.88,1.184-6.132,3.55c-0.137,0.607-0.206,1.144-0.206,1.614v31.599c-0.196,1.154-0.763,1.731-1.702,1.731h-0.176
		c-1.154-0.235-1.731-0.743-1.731-1.526V8.772c0-2.288-1.272-3.853-3.814-4.694c-0.626-0.235-1.467-0.391-2.523-0.469
		c-2.875,0-4.929,1.154-6.161,3.462C3.785,7.462,3.726,7.726,3.726,7.863v32.068c-0.117,1.448-0.724,2.171-1.819,2.171H1.731
		C0.577,41.907,0,41.33,0,40.371V8.244C0,4.88,1.966,2.377,5.897,0.733C7.071,0.245,8.371,0,9.8,0z"/>
	<path style="fill:#FFFFFF;" d="M52.16,13.526c6.181,0.274,10.171,2.269,11.971,5.985c0.235,0.724,0.352,1.34,0.352,1.848v13.79
		c0,3.071-2.729,5.242-8.186,6.513c-1.506,0.293-2.915,0.44-4.225,0.44c-4.01,0-7.374-0.968-10.093-2.905
		c-1.467-1.252-2.2-2.513-2.2-3.785v-5.985c0-2.269,1.966-4.166,5.897-5.692c2.269-0.645,4.401-0.968,6.396-0.968
		c3.169,0,6.103,0.646,8.802,1.936v-3.345c0-1.31-1.467-2.513-4.401-3.609c-1.506-0.411-2.973-0.616-4.401-0.616
		c-4.206,0-7.1,1.262-8.684,3.785c0,1.643-0.675,2.465-2.025,2.465c-1.056-0.274-1.584-0.772-1.584-1.496v-0.616
		c0-2.894,2.288-5.212,6.865-6.953C48.796,13.79,50.634,13.526,52.16,13.526z M43.3,29.956v4.929c0,1.448,1.966,2.563,5.897,3.345
		c0.821,0.176,1.779,0.264,2.875,0.264c4.068,0,6.973-0.968,8.714-2.905l0.088-0.44v-5.457c0-1.115-1.731-2.102-5.193-2.963
		c-1.056-0.235-2.23-0.352-3.521-0.352c-4.186,0-7.11,0.988-8.772,2.963L43.3,29.956z"/>
	<path style="fill:#FFFFFF;" d="M79.205,14.435c4.557,0,8.098,1.477,10.621,4.43c0.743,1.272,1.115,2.406,1.115,3.403
		c-0.254,1.135-0.822,1.702-1.702,1.702h-0.176c-0.939,0-1.477-0.596-1.614-1.79c0-1.623-1.79-2.953-5.369-3.99
		c-1.448-0.176-2.406-0.264-2.875-0.264c-3.56,0-6.172,1.047-7.834,3.139c-0.235,0.372-0.352,0.802-0.352,1.291v12.088
		c0,1.408,1.477,2.631,4.43,3.667c1.193,0.333,2.464,0.499,3.814,0.499c4.264-0.195,6.934-1.389,8.01-3.579
		c0.195-1.584,0.704-2.376,1.526-2.376c0-0.059,0.117-0.088,0.352-0.088c1.193,0.215,1.79,0.783,1.79,1.702
		c0,3.267-2.465,5.712-7.394,7.335c-1.8,0.333-3.276,0.499-4.43,0.499c-3.912,0-7.179-1.193-9.8-3.579
		c-1.193-1.35-1.79-2.826-1.79-4.43V22.445c0-3.892,2.953-6.474,8.861-7.746L79.205,14.435z"/>
	<path style="fill:#FF7037;" d="M103.698,0h0.704c2.797,0,5.369,1.115,7.716,3.345C114.446,1.115,117.008,0,119.806,0h0.733
		c3.618,0,6.484,1.448,8.596,4.342c0.782,1.232,1.174,2.533,1.174,3.902v32.039c-0.157,1.213-0.763,1.819-1.819,1.819h-0.088
		c-1.115,0-1.721-0.723-1.819-2.171V7.863c0-1.389-1.144-2.621-3.433-3.697c-1.056-0.371-2.025-0.557-2.905-0.557
		c-2.836,0-4.88,1.184-6.132,3.55c-0.137,0.607-0.205,1.144-0.205,1.614v31.599c-0.196,1.154-0.763,1.731-1.702,1.731h-0.176
		c-1.154-0.235-1.731-0.743-1.731-1.526V8.772c0-2.288-1.271-3.853-3.814-4.694c-0.626-0.235-1.467-0.391-2.523-0.469
		c-2.875,0-4.929,1.154-6.161,3.462c-0.117,0.392-0.176,0.656-0.176,0.792v32.068c-0.117,1.448-0.724,2.171-1.819,2.171H95.63
		c-1.154-0.195-1.731-0.772-1.731-1.731V8.244c0-3.364,1.966-5.868,5.897-7.511C100.969,0.245,102.27,0,103.698,0z"/>
	<path style="fill:#FFFFFF;" d="M146.059,13.526c6.181,0.274,10.171,2.269,11.971,5.985c0.235,0.724,0.352,1.34,0.352,1.848v13.79
		c0,3.071-2.729,5.242-8.186,6.513c-1.506,0.293-2.915,0.44-4.225,0.44c-4.01,0-7.374-0.968-10.093-2.905
		c-1.467-1.252-2.201-2.513-2.201-3.785v-5.985c0-2.269,1.966-4.166,5.897-5.692c2.269-0.645,4.401-0.968,6.396-0.968
		c3.169,0,6.103,0.646,8.802,1.936v-3.345c0-1.31-1.467-2.513-4.401-3.609c-1.506-0.411-2.973-0.616-4.401-0.616
		c-4.206,0-7.1,1.262-8.684,3.785c0,1.643-0.675,2.465-2.025,2.465c-1.056-0.274-1.584-0.772-1.584-1.496v-0.616
		c0-2.894,2.289-5.212,6.866-6.953C142.694,13.79,144.533,13.526,146.059,13.526z M137.198,29.956v4.929
		c0,1.448,1.966,2.563,5.897,3.345c0.822,0.176,1.78,0.264,2.875,0.264c4.068,0,6.973-0.968,8.714-2.905l0.088-0.44v-5.457
		c0-1.115-1.731-2.102-5.193-2.963c-1.056-0.235-2.23-0.352-3.521-0.352c-4.186,0-7.11,0.988-8.772,2.963L137.198,29.956z"/>
	<path style="fill:#FFFFFF;" d="M173.104,14.435c4.557,0,8.098,1.477,10.621,4.43c0.743,1.272,1.115,2.406,1.115,3.403
		c-0.254,1.135-0.822,1.702-1.702,1.702h-0.176c-0.939,0-1.477-0.596-1.614-1.79c0-1.623-1.79-2.953-5.369-3.99
		c-1.448-0.176-2.406-0.264-2.875-0.264c-3.56,0-6.171,1.047-7.834,3.139c-0.235,0.372-0.352,0.802-0.352,1.291v12.088
		c0,1.408,1.477,2.631,4.43,3.667c1.193,0.333,2.465,0.499,3.814,0.499c4.264-0.195,6.934-1.389,8.01-3.579
		c0.195-1.584,0.704-2.376,1.526-2.376c0-0.059,0.117-0.088,0.352-0.088c1.193,0.215,1.79,0.783,1.79,1.702
		c0,3.267-2.465,5.712-7.393,7.335c-1.8,0.333-3.277,0.499-4.43,0.499c-3.912,0-7.179-1.193-9.8-3.579
		c-1.193-1.35-1.79-2.826-1.79-4.43V22.445c0-3.892,2.953-6.474,8.861-7.746L173.104,14.435z"/>
</g>
<g>
</g>
<g>
</g>
<g>
</g>
<g>
</g>
<g>
</g>
<g>
</g>
<g>
</g>
<g>
</g>
<g>
</g>
<g>
</g>
<g>
</g>
<g>
</g>
<g>
</g>
<g>
</g>
<g>
</g>
</svg>
